<?xml version="1.0" encoding="utf-8"?>
<!-- Generator: Adobe Illustrator 22.1.0, SVG Export Plug-In . SVG Version: 6.00 Build 0)  -->
<svg version="1.1" id="Layer_1" xmlns="http://www.w3.org/2000/svg" xmlns:xlink="http://www.w3.org/1999/xlink" x="0px" y="0px"
	 viewBox="0 0 172.5 49" style="enable-background:new 0 0 172.5 49;" xml:space="preserve">
<style type="text/css">
	.st0{fill:#4E3594;}
	.st1{fill:#8E58A4;}
	.st2{fill:#662E8D;}
	.st3{fill:none;}
	.st4{font-family:'Krungthep';}
	.st5{font-size:6px;}
	.st6{fill:none;stroke:#000000;stroke-width:0.7;stroke-miterlimit:10;}
</style>
<g>
	<g>
		<path class="st0" d="M21.3,27.4v7.7h-2.8v7.5H10V24.8c0-3.4,1-6.1,3.1-8.3s4.7-3.3,7.8-3.3c3.4,0,6.3,1.5,8.7,4.5l-7,5.1
			c-0.4-1.1-1.1-1.6-2.1-1.6c-1.3,0-2,0.9-2,2.7v3.6h2.8V27.4z"/>
		<path class="st0" d="M30.7,13.9h8.5V31c0,1.3,0.2,2.2,0.6,2.7c0.4,0.4,1.3,0.7,2.5,0.7h0.4v8.3h-2.3c-3.1,0-5.5-0.9-7.3-2.7
			c-1.7-1.8-2.6-4.3-2.6-7.6V13.9H30.7z"/>
		<path class="st0" d="M61.1,25.1v6.4h-5.6c-0.8,0-1.3,0.1-1.6,0.3c-0.3,0.2-0.5,0.6-0.5,1.1c0,0.6,0.2,1,0.5,1.2
			c0.3,0.2,1,0.3,2,0.3h5.7v8.2h-6.7c-3.1,0-5.5-0.8-7.2-2.3s-2.5-3.7-2.5-6.5V22.6c0-2.8,0.8-4.9,2.4-6.4c1.6-1.5,3.8-2.3,6.6-2.3
			h7.4v8.3h-5.4c-1.5,0-2.2,0.5-2.2,1.4c0,0.6,0.2,0.9,0.5,1.2c0.4,0.2,1,0.3,1.9,0.3H61.1z"/>
		<path class="st0" d="M117.9,13.2c4,0,7.5,1.5,10.4,4.4c2.9,3,4.4,6.5,4.4,10.6c0,4.2-1.5,7.8-4.4,10.7c-2.9,2.9-6.5,4.4-10.6,4.4
			c-4.2,0-7.7-1.5-10.6-4.4c-2.9-3-4.4-6.5-4.4-10.7s1.5-7.8,4.4-10.7C110,14.6,113.7,13.2,117.9,13.2L117.9,13.2z M117.7,21.6
			c-1.8,0-3.2,0.6-4.5,1.9c-1.2,1.3-1.8,2.8-1.8,4.7c0,1.8,0.6,3.4,1.9,4.7c1.2,1.3,2.7,1.9,4.5,1.9s3.2-0.6,4.5-1.9
			c1.2-1.3,1.8-2.8,1.8-4.7c0-1.8-0.6-3.4-1.8-4.7C120.9,22.3,119.4,21.6,117.7,21.6z"/>
		<path class="st0" d="M136.7,42.6V24c0-3.3,1-5.9,2.9-7.9s4.5-2.9,7.8-2.9c3.2,0,5.7,1,7.4,2.9s2.6,4.7,2.6,8.2v18.4h-8.5V24.3
			c0-1.8-0.6-2.6-1.9-2.6c-1.2,0-1.8,0.9-1.8,2.6v18.4L136.7,42.6L136.7,42.6z"/>
		<polygon class="st0" points="73.8,19.8 78.2,24.1 82.5,28.4 78.2,32.7 73.8,37 69.4,32.7 65,28.4 69.4,24.1 		"/>
		<polygon class="st0" points="92.9,19.8 97.3,24.1 101.6,28.4 97.3,32.7 92.9,37 88.5,32.7 84.1,28.4 88.5,24.1 		"/>
		<polygon class="st1" points="74.8,37.9 79,33.5 83.3,29.2 87.6,33.5 91.9,37.9 87.6,42.3 83.3,46.7 79,42.3 		"/>
		<polygon class="st2" points="74.8,18.8 79,14.5 83.3,10.1 87.6,14.5 91.9,18.8 87.6,23.2 83.3,27.6 79,23.2 		"/>
	</g>
	<rect x="161.2" y="14.3" class="st3" width="22.7" height="26.7"/>
	<text transform="matrix(1 0 0 1 161.1668 18.5461)" class="st4 st5">R</text>
	<circle class="st6" cx="163.1" cy="16.3" r="3.8"/>
</g>
</svg>
